<?xml version="1.0" encoding="utf-8"?>
<!-- Generator: Adobe Illustrator 21.0.2, SVG Export Plug-In . SVG Version: 6.00 Build 0)  -->
<svg version="1.1" id="Layer_1" xmlns="http://www.w3.org/2000/svg" xmlns:xlink="http://www.w3.org/1999/xlink" x="0px" y="0px"
	 viewBox="0 0 900 900" style="enable-background:new 0 0 900 900;" xml:space="preserve">
<style type="text/css">
	.st0{fill:#571A66;}
	.st1{fill:#FFFFFF;}
</style>
<rect class="st0" width="900" height="900"/>
<path class="st1" d="M593.7,78.2c-2-0.8-4.4,0.2-5.2,2.2l-22,54c-19.3-4.8-42.4,11.3-53.2,37.9s-5.5,54.3,11.6,64.3l-29.5,72.6
	c-20.4,3.1-38.7,6.3-48.1,6.3c-29.1,0-143.5-30.1-143.5,2.9v169.9c16,18.2,87,30.3,127.3,45.9v257.2c-63.8-8.9-110-61.6-110,30.7
	h262c0-89.4-49.9-42.8-112-31.7V537.8c33.9-17.3,102.5-29.8,119.7-49.4V318.5c0-20.8-45.4-16.6-86.2-10.6l27.8-68.2
	c19.3,4.8,42.4-11.3,53.2-37.9s5.5-54.3-11.6-64.3l22-54C596.8,81.4,595.8,79.1,593.7,78.2z"/>
</svg>
