<?xml version="1.0" encoding="utf-8"?>
<!-- Generator: Adobe Illustrator 21.0.2, SVG Export Plug-In . SVG Version: 6.00 Build 0)  -->
<svg version="1.1" id="Layer_1" xmlns="http://www.w3.org/2000/svg" xmlns:xlink="http://www.w3.org/1999/xlink" x="0px" y="0px"
	 viewBox="0 0 900 900" style="enable-background:new 0 0 900 900;" xml:space="preserve">
<style type="text/css">
	.st0{fill:#FFFFFF;stroke:#020202;stroke-miterlimit:10;}
	.st1{fill:none;}
	.st2{fill:#FFFFFF;}
</style>
<g>
	<path class="st0" d="M113,919.9"/>
</g>
<g>
	<path class="st1" d="M750.2,639.6L629.4,745.4"/>
	<polygon class="st2" points="759,631.9 760,631.1 759,631.1 	"/>
	<path d="M709.3,489.5c-2-12.4-8.4-23.5-18-31.4c0.1,0,0.1,0,0.1,0s-0.2-0.1-0.5-0.3c-0.9-0.7-1.8-1.4-2.7-2.1
		c-4.2-3-8.8-5.4-13.6-7c-24.3-11.7-74.5-29.4-145.9-22.4c-135.3,13.2-140.6,64.8-233,79.6c0,0,90.9,19.3,177.2-27.3
		c67.8-36.6,165.9-27.9,203.2-22.8c3,1.3,5.9,2.9,8.6,4.9c10,7.2,16.6,17.8,18.6,29.9c1.6,9.5-0.7,19.1-6.3,27
		c-5.6,7.9-14,13.1-23.6,14.6c-15.5,2.6-30.1-8-32.6-23.4c-1-5.8,0.4-11.7,3.8-16.5c3.4-4.8,8.5-8,14.4-8.9
		c9.3-1.6,18.1,4.8,19.6,14.1c0.6,3.4-0.2,6.9-2.3,9.7c-2,2.8-5.1,4.7-8.5,5.3c-5.4,0.9-10.4-2.8-11.3-8.1c-0.7-4,2-7.7,6-8.4
		c2.9-0.5,5.5,1.5,6,4.3c0.3,1.9-1,3.8-3,4.1c-1.6,0.3-2.7,1.8-2.5,3.4c0.3,1.6,1.8,2.7,3.4,2.5c5.2-0.9,8.8-5.8,7.9-11
		c-0.5-3-2.1-5.6-4.5-7.3c-2.4-1.7-5.4-2.4-8.4-2c-7.2,1.2-12.1,8-10.9,15.3c1.4,8.6,9.6,14.5,18.2,13.1c5-0.8,9.4-3.6,12.4-7.7
		c3-4.1,4.1-9.2,3.3-14.2c-2.1-12.6-14-21.1-26.5-19c-15.3,2.5-25.7,17-23.2,32.3c1.5,9.1,6.4,17,13.9,22.4c7,5,15.3,7.2,23.8,6.2
		c0.6-0.1,1.2-0.2,1.8-0.3c11.1-1.8,20.9-7.9,27.5-17.1C708.6,511.8,711.2,500.6,709.3,489.5z"/>
	<path d="M519.9,129.8c-13.3-4.7-27.6-4-40.3,2c-12.7,6-22.3,16.7-27.1,29.9c-8,22.5,3.8,47.3,26.2,55.3c18.6,6.6,39-3.1,45.7-21.7
		c2.7-7.5,2.3-15.5-1.1-22.7c-3.4-7.2-9.4-12.6-16.9-15.2c-12.9-4.6-27.2,2.2-31.8,15.1c-3.9,10.9,1.8,22.9,12.7,26.8
		c9.3,3.3,19.5-1.6,22.9-10.8c2.9-8-1.3-16.8-9.3-19.7c-2.9-1-6,0.5-7,3.3c-1,2.9,0.5,6,3.3,7c2.3,0.8,3.5,3.3,2.7,5.6
		c-1.3,3.6-5.2,5.4-8.8,4.2c-5.2-1.8-7.9-7.6-6.1-12.8c2.6-7.2,10.5-11,17.7-8.4c4.7,1.7,8.5,5.1,10.6,9.6c2.1,4.5,2.4,9.6,0.7,14.3
		c-4.6,12.8-18.8,19.6-31.6,15c-16.8-6-25.6-24.5-19.6-41.3c3.7-10.5,11.4-18.9,21.4-23.7c10.1-4.8,21.4-5.3,31.9-1.6
		c27.8,9.9,42.4,40.6,32.5,68.4c-5.8,16.4-17.3,29.1-31.5,36.9c-71.4,10.1-111.5-50.6-211,9.6c-79.5,48.1-117.8,99.7-117.8,99.7
		s96.8-80.6,188.1-67.3c54.8,8,99.8-9.5,127.3-25.1c24.7-6.3,46-24.4,55.2-50.2C571,178.8,553.4,141.7,519.9,129.8z"/>
	<path d="M688.6,235.3c-3.9-8.4-11.2-14.7-20.6-17.5c-9.3-2.8-19.6-2-28.9,2.3c-6.7,3.1-12,8.3-14.9,14.7c-2.9,6.6-3,13.5-0.1,19.7
		c2.1,4.5,6,7.9,11.1,9.4c4.9,1.5,10.3,1.1,15.2-1.2c7.6-3.5,11.3-12,8.1-18.9c-1.2-2.6-3.5-4.6-6.4-5.4c-2.8-0.8-5.8-0.6-8.5,0.7
		c-4.5,2.1-6.6,7.1-4.7,11.3c1.5,3.4,5.7,4.7,9.3,3.1c1.4-0.6,2.5-1.7,3.1-3.1c0.6-1.5,0.6-3.1,0-4.5c-0.4-0.8-0.9-1.4-1.6-1.9
		c0.3,0,0.5,0.1,0.8,0.2c1.2,0.4,2.2,1.2,2.7,2.2c1.8,3.9-0.5,8.8-5.1,10.9c-3.6,1.6-7.5,2-11,0.9c-3.4-1-6-3.2-7.3-6.2
		c-2.1-4.6-2-9.8,0.2-14.8c2.3-5.1,6.5-9.2,11.9-11.7c8-3.7,16.8-4.4,24.7-2c7.8,2.3,13.8,7.4,16.9,14.3c4.6,10.1,4.5,21.7-0.3,32.7
		c-3,6.8-7.6,12.8-13.4,17.7c-32.9,19.7-108.7,58.5-182.5,50.6c-99.1-10.7-166.6,41.9-166.6,41.9c87.2-21.3,130.1,43.8,242.7-14.3
		c47.1-24.3,80.3-49.4,100.3-66.8c9.4-5.1,17.1-12.5,22.3-21.3c0.6-0.6,0.8-0.9,0.8-0.9s-0.2,0.1-0.5,0.3c0.9-1.5,1.7-3.1,2.4-4.7
		C693.9,260.4,694,247.1,688.6,235.3z"/>
	<path d="M762.8,621.1c-0.2,0-0.3,0-0.5,0c-0.2,0-0.3,0-0.5,0H136.7c-0.4,0-0.8,0.1-1.3,0.2c-4.3,0.8-7.6,4.6-7.6,9.1
		c0,5.1,4.2,9.3,9.3,9.3c3.3,0,6.2-1.7,7.9-4.3l127.5,118c0.5,0.5,1.2,0.8,1.8,1.1c2.6,11.3,7.6,19,13.3,19h317.8
		c5.8,0,10.8-7.7,13.4-19.1c0.5-0.2,1-0.5,1.4-0.9L755,635.4c1.7,2.5,4.5,4.2,7.8,4.2c5.1,0,9.3-4.2,9.3-9.3
		C772.1,625.2,767.9,621.1,762.8,621.1z"/>
</g>
</svg>
