<?xml version="1.0" encoding="utf-8"?>
<!-- Generator: Adobe Illustrator 21.0.2, SVG Export Plug-In . SVG Version: 6.00 Build 0)  -->
<svg version="1.1" id="Layer_1" xmlns="http://www.w3.org/2000/svg" xmlns:xlink="http://www.w3.org/1999/xlink" x="0px" y="0px"
	 viewBox="0 0 900 900" style="enable-background:new 0 0 900 900;" xml:space="preserve">
<style type="text/css">
	.st0{fill:#930A49;}
	.st1{fill:#FFFFFF;}
</style>
<rect class="st0" width="900" height="900"/>
<g>
	<g>
		<g>
			<path class="st1" d="M645.9,521.4c-34.1,0-64.7-15.3-85.2-39.4c-27.5,25.7-64.4,41.4-105.1,41.4c-38.9,0-74.4-14.4-101.5-38.2
				c-20.5,25.2-51.7,41.2-86.7,41.2c-22,0-42.5-6.4-59.8-17.3c1.4,10.4,4.7,20.5,10.1,29.8l83.9,145.3c14.5,25,41.2,40.5,70.1,40.5
				h167.8c28.9,0,55.6-15.4,70.1-40.5l83.9-145.3c6.1-10.5,9.6-22.1,10.6-33.9C687.1,515.4,667.2,521.4,645.9,521.4z"/>
		</g>
	</g>
	<path class="st1" d="M594.2,176.9c-32.8,6.7-55.6,33-70.4,58.2c-6.4-3.2-13.6-5.1-21.3-5.1c-26.1,0-47.2,21.2-47.2,47.2
		c0,26.1,21.2,47.2,47.2,47.2s47.2-21.2,47.2-47.2c0-16.3-8.3-30.7-20.8-39.2c14.1-24.1,35.7-49.1,66.4-55.4
		c5.6-1.1,11.4-1.6,17.3-1.4l0.2-6C606.6,175.2,600.3,175.7,594.2,176.9z"/>
	<g>
		<g>
			<path class="st1" d="M645.9,276.1c-17.4,0-33.9,4-48.6,11.1c-7.5-17.6-18.2-33.5-31.4-47c5.9,10.6,9.3,22.9,9.3,35.9
				c0,40.7-33,73.7-73.7,73.7c-40.7,0-73.7-33-73.7-73.7c0-40.7,33-73.7,73.7-73.7c2.1,0,4.1,0.1,6.2,0.3
				c-16.3-5.9-33.8-9.1-52.1-9.1c-64.9,0-120.4,40.2-143.1,97c-13.8-6.1-29.1-9.5-45.2-9.5c-61.7,0-111.7,50-111.7,111.7
				s50,111.7,111.7,111.7c35,0,66.2-16.1,86.7-41.2c27.1,23.8,62.6,38.2,101.5,38.2c40.6,0,77.5-15.7,105.1-41.4
				c20.5,24.1,51,39.4,85.2,39.4c61.7,0,111.7-50,111.7-111.7S707.6,276.1,645.9,276.1z"/>
		</g>
	</g>
</g>
</svg>
