<?xml version="1.0" encoding="utf-8"?>
<!-- Generator: Adobe Illustrator 21.0.2, SVG Export Plug-In . SVG Version: 6.00 Build 0)  -->
<svg version="1.1" id="Layer_1" xmlns="http://www.w3.org/2000/svg" xmlns:xlink="http://www.w3.org/1999/xlink" x="0px" y="0px"
	 viewBox="0 0 900 900" style="enable-background:new 0 0 900 900;" xml:space="preserve">
<path d="M360.7,79.3c0,0-81.2,58.1,36.3,179c107,110.1-10.5,282.9-10.5,282.9s117.5-64.6,137-199.6
	C539.4,231.3,313.9,145.6,360.7,79.3z"/>
<path d="M271.8,225.1c0,0-47,66.4,28.5,128.4c74.6,61.3,15.6,158.2,15.6,158.2s52.1-45,74.2-118.5
	C419.7,294.5,287.8,292,271.8,225.1z"/>
<path d="M530.5,91.9c0,0-80.9,39.3,13.3,154.1c84,102.3-40.3,236.1-40.3,236.1s135.6-60.3,137.1-154.5
	C642.1,233.5,481,142.3,530.5,91.9z"/>
<path d="M784,600.8C784,738.4,634.5,850,450,850S116,738.4,116,600.8"/>
<g>
	<path d="M119,616c85.7,0,171.5,0,257.2,0s171.5,0,257.2,0c48.5,0,97,0,145.6,0c7.8,0,15.4-6.9,15-15c-0.4-8.1-6.6-15-15-15
		c-85.7,0-171.5,0-257.2,0s-171.5,0-257.2,0c-48.5,0-97,0-145.6,0c-7.8,0-15.4,6.9-15,15C104.4,609.1,110.6,616,119,616L119,616z"/>
</g>
<g>
	<path d="M356,855c44.9,0,89.9,0,134.8,0c15.7,0,31.5,0,47.2,0c14.1,0,27.7-12.4,27-27c-0.7-14.6-11.9-27-27-27c-8,0-16,0-24,0
		c-14.1,0-27.7,12.4-27,27c0.7,14.6,11.9,27,27,27c8,0,16,0,24,0c14.1,0,27.7-12.4,27-27c-0.7-14.6-11.9-27-27-27
		c-55.4,0-110.8,0-166.1,0c-5.3,0-10.6,0-15.9,0c-14.1,0-27.7,12.4-27,27C329.7,842.6,340.9,855,356,855L356,855z"/>
</g>
</svg>
