<?xml version="1.0" encoding="utf-8"?>
<!-- Generator: Adobe Illustrator 21.0.2, SVG Export Plug-In . SVG Version: 6.00 Build 0)  -->
<svg version="1.1" id="Layer_1" xmlns="http://www.w3.org/2000/svg" xmlns:xlink="http://www.w3.org/1999/xlink" x="0px" y="0px"
	 viewBox="0 0 900 900" style="enable-background:new 0 0 900 900;" xml:space="preserve">
<style type="text/css">
	.st0{fill:#FFFFFF;stroke:#020202;stroke-miterlimit:10;}
	.st1{fill:#EEA11E;stroke:#000000;stroke-miterlimit:10;}
	.st2{fill:none;stroke:#FFFFFF;stroke-width:40;stroke-miterlimit:10;}
	.st3{fill:#FFFFFF;}
	.st4{fill:#D82A2A;}
</style>
<g>
	<path class="st0" d="M113,919.9"/>
</g>
<rect x="3.3" y="0" class="st1" width="900" height="900"/>
<path class="st2" d="M702.2,354c68.5,141.5,8.6,314.3-132.9,382.9S255,745.5,186.3,604S177.7,289.7,319.3,221
	c49-23.7,103.7-33.1,157.8-26.8"/>
<g>
	<g>
		<path class="st3" d="M660.5,374.1L444.3,478.9l29.6-238.4c-46-5.7-92.7,2.1-134.3,22.2c-118.6,57.5-169,202.4-111.5,321
			s202.4,168.9,321,111.4C667.7,637.7,718,492.8,660.5,374.1z M298.7,484.4c-13.2-15-11.7-37.8,3.3-50.9s37.8-11.7,50.9,3.3
			c13.2,15,11.7,37.8-3.3,50.9C334.6,500.9,311.8,499.4,298.7,484.4z M353.7,628.9c-9.6,4.7-21.3,0.7-26-9c-4.7-9.6-0.7-21.3,9-26
			c9.6-4.7,21.3-0.7,26,9C367.4,612.7,363.3,624.2,353.7,628.9z M375.2,343.1c-6.6,5.8-16.8,5.1-22.7-1.5
			c-5.8-6.6-5.1-16.8,1.5-22.7c6.6-5.8,16.8-5.1,22.7,1.5C382.5,327.1,381.8,337.3,375.2,343.1z M447.9,538.3
			c-4,1.9-8.8,0.2-10.8-3.7c-1.9-3.9-0.2-8.8,3.7-10.8c3.9-1.9,8.8-0.2,10.8,3.7C453.5,531.7,451.7,536.5,447.9,538.3z M520.2,660.4
			c-16.2,0-29.4-13.2-29.4-29.4c0-16.2,13.2-29.4,29.4-29.4c16.2,0,29.4,13.2,29.4,29.4C549.6,647.1,536.4,660.4,520.2,660.4z
			 M601.8,484.6c-13.3,6.4-29.2,0.9-35.6-12.4c-6.4-13.3-0.9-29.2,12.4-35.6c13.3-6.4,29.2-0.9,35.6,12.4
			C620.6,462.3,615,478.2,601.8,484.6z"/>
	</g>
</g>
<path class="st2" d="M548.5,100.5c47.7,4.4,93,20,132,45.6s70.5,60.6,92.2,101.9"/>
<g>
	<g>
		<path class="st3" d="M651.9,188.7c-32.3-22-69.5-35.9-108.2-41l-32.4,248.5l218.8-122.2C711.1,239.9,684.3,210.7,651.9,188.7z
			 M586.2,329.7c-6.8,0.2-12.6-5.3-12.8-12.2c-0.2-6.8,5.3-12.6,12.2-12.8c6.8-0.2,12.6,5.3,12.8,12.2
			C598.5,323.8,593,329.5,586.2,329.7z M613.6,258.1c-10.4,10.9-27.5,11.3-38.5,0.9c-10.9-10.4-11.3-27.5-0.9-38.5
			c10.4-10.9,27.5-11.3,38.5-0.9C623.6,230,624,247.1,613.6,258.1z M671.9,271.5c-6.3,0.2-11.5-4.9-11.7-11.1
			c-0.2-6.3,4.9-11.5,11.1-11.7c6.3-0.2,11.5,4.9,11.7,11.1C683.2,266.1,678.2,271.4,671.9,271.5z"/>
	</g>
</g>
<ellipse transform="matrix(2.226711e-03 -1 1 2.226711e-03 352.7906 832.5673)" class="st4" cx="593.6" cy="239.5" rx="27.3" ry="27.3"/>
<ellipse transform="matrix(2.226711e-03 -1 1 2.226711e-03 409.663 931.0709)" class="st4" cx="671.4" cy="260.2" rx="12" ry="12"/>
<ellipse transform="matrix(2.226711e-03 -1 1 2.226711e-03 267.0036 902.0927)" class="st4" cx="585.6" cy="317.2" rx="12.5" ry="12.5"/>
<circle class="st4" cx="364.7" cy="330.9" r="16.2"/>
<circle class="st4" cx="325.3" cy="460.7" r="36.6"/>
<circle class="st4" cx="589.9" cy="460.7" r="26.9"/>
<circle class="st4" cx="444.2" cy="531.5" r="7.6"/>
<circle class="st4" cx="520.2" cy="630.8" r="29.2"/>
<circle class="st4" cx="346.1" cy="611.4" r="19.4"/>
</svg>
