<?xml version="1.0" encoding="utf-8"?>
<!-- Generator: Adobe Illustrator 21.0.2, SVG Export Plug-In . SVG Version: 6.00 Build 0)  -->
<svg version="1.1" id="Layer_1" xmlns="http://www.w3.org/2000/svg" xmlns:xlink="http://www.w3.org/1999/xlink" x="0px" y="0px"
	 viewBox="0 0 900 900" style="enable-background:new 0 0 900 900;" xml:space="preserve">
<style type="text/css">
	.st0{fill:#FFFFFF;stroke:#020202;stroke-miterlimit:10;}
	.st1{fill:none;}
	.st2{fill:none;stroke:#000000;stroke-width:30;stroke-linecap:round;stroke-miterlimit:10;}
	.st3{fill:none;stroke:#000000;stroke-width:15;stroke-linecap:round;stroke-miterlimit:10;}
</style>
<g>
	<path class="st0" d="M113,919.9"/>
</g>
<g>
	<g>
		<path d="M466.5,417.6c22.1-16.6,53.4-12.2,70,9.9l0.2,0.3c39.8-42.3,61.3-97.4,60.6-155.7c-0.8-59.6-24.7-115.3-67.4-156.8
			c-42.7-41.6-99-64-158.5-63.3s-115.3,24.7-156.8,67.4c-41.6,42.7-64,99-63.3,158.5c0.8,59.6,24.7,115.3,67.4,156.8
			c42.7,41.6,99,64,158.5,63.3c26.6-0.3,52.4-5.3,76.6-14.5C440.6,461.8,445.8,433.2,466.5,417.6z M376.2,418
			c-78.8,1-143.8-62.3-144.8-141.1C230.3,198,293.6,133,372.5,132c78.8-1,143.8,62.3,144.8,141.1C518.3,352,455,416.9,376.2,418z
			 M777.3,725.4l-165.9-223c-13.6-18.3-35-27.4-56.2-26.1l-27.8-38c-11.4-15.7-33.3-19-48.9-7.6s-19,33.5-7.5,49.1l27.7,37.9
			c-7.8,20.1-5.4,43.7,8.5,62.3L673,803c13.1,17.6,33.5,26.7,53.9,26.2c12.9-0.3,25.9-4.5,37-12.8
			C792.7,795,798.7,754.2,777.3,725.4z"/>
	</g>
</g>
<line class="st1" x1="137.8" y1="-75" x2="689.8" y2="-75"/>
<line class="st2" x1="338.1" y1="207.2" x2="421.6" y2="207.2"/>
<line class="st2" x1="295.2" y1="273.5" x2="394" y2="273.5"/>
<line class="st2" x1="352.2" y1="339.8" x2="435.8" y2="339.8"/>
<line class="st3" x1="627" y1="207.2" x2="771" y2="207.2"/>
<line class="st3" x1="41" y1="273.5" x2="113" y2="273.5"/>
<line class="st3" x1="627" y1="355.2" x2="729" y2="355.2"/>
<line class="st3" x1="77" y1="205.2" x2="113" y2="205.2"/>
</svg>
